<svg version="1.2" baseProfile="tiny-ps" xmlns="http://www.w3.org/2000/svg" viewBox="0 0 458 445" width="458" height="445">
	<title>github_black</title>
	<style>
		tspan { white-space:pre }
		.shp0 { fill: #000000 } 
	</style>
	<g id="github_black">
		<g id="&lt;Group&gt;">
			<path id="&lt;Path&gt;" class="shp0" d="M457.63 228.56C457.63 102.29 355.27 -0.07 229 -0.07C102.73 -0.07 0.37 102.29 0.37 228.56C0.37 328.79 64.86 413.94 154.6 444.81C160.07 440.86 166.38 435.99 166.38 427.79C166.38 419.4 166.28 404.43 166.1 382.86C159.49 383.99 151.46 384.55 142.02 384.55C106.33 384.55 95.04 361.91 89.67 349.23C82.68 332.72 73.62 324.97 63.99 318.77C58.08 314.97 56.72 310.48 63.56 309.2C95.15 303.28 103.22 344.82 124.32 351.45C139.38 356.17 158.74 354.13 168.37 347.93C169.64 335.25 178.84 324.27 186.5 318.49C132.84 313.37 101.03 294.83 84.53 265.04L82.76 261.7L78.62 252.24L77.39 248.85C72.23 233.73 69.94 216.41 69.94 197.06C69.94 162.72 80.7 149.76 95.15 131.45C87.78 105.35 89.1 83.38 99.11 65.54C114.6 62.35 136.97 71.17 166.24 92.02C190.03 81.88 253.48 81.03 283.5 89.76C301.91 77.65 335.61 60.47 349.21 65.28C352.89 71.17 360.82 88.36 354.03 126.1C358.64 134.38 382.63 152.02 382.72 201.87C382.34 220.26 380.41 235.79 376.84 248.92L374.86 255.63C374.11 257.74 373.32 259.8 372.49 261.82L371.04 265.15C355.12 299.92 322.47 312.9 269.71 318.3C286.81 329 291.71 342.43 291.71 378.77C291.71 415.11 291.23 419.99 291.34 428.35C291.44 435.74 297.35 441.05 302.66 445.07C392.79 414.41 457.63 329.06 457.63 228.56Z" />
		</g>
	</g>
</svg>