<svg preserveAspectRatio="xMidYMid meet" data-bbox="39 39.5 122 121" viewBox="39 39.5 122 121" height="200" width="200" xmlns="http://www.w3.org/2000/svg" data-type="color" role="presentation" aria-hidden="true" aria-labelledby="svgcid--ad9xxss2gx66"><defs><style>#comp-kkwi4trj svg [data-color="1"] {fill: #FFFFFF;}</style></defs><title id="svgcid--ad9xxss2gx66"></title>
    <g>
        <path d="M100 160.5c-33.636 0-61-27.142-61-60.502C39 66.639 66.364 39.5 100 39.5c33.634 0 61 27.139 61 60.498 0 33.36-27.366 60.502-61 60.502zm0-112.573c-28.951 0-52.506 23.359-52.506 52.071 0 28.718 23.554 52.079 52.506 52.079 28.953 0 52.505-23.361 52.505-52.079.001-28.712-23.552-52.071-52.505-52.071z" fill="#2F54DD" data-color="1"></path>
        <path d="M104.244 118.815h-8.492v-6.817c0-7.491 5.638-12.982 10.167-17.395.453-.444.901-.878 1.335-1.311a10.063 10.063 0 0 0 3.008-7.197c0-5.611-4.602-10.176-10.264-10.176-5.658 0-10.262 4.564-10.262 10.176h-8.495c0-10.256 8.414-18.601 18.757-18.601s18.759 8.345 18.759 18.601c0 4.968-1.952 9.64-5.496 13.154-.453.449-.916.902-1.389 1.362-3.751 3.653-7.628 7.427-7.628 11.386v6.818z" fill="#2F54DD" data-color="1"></path>
        <path fill="#2F54DD" d="M104.244 126.709v8.42h-8.49v-8.42h8.49z" data-color="1"></path>
    </g>
</svg>