<svg preserveAspectRatio="xMidYMid meet" data-bbox="45.747 19.975 108.522 160.025" viewBox="45.747 19.975 108.522 160.025" height="200" width="200" xmlns="http://www.w3.org/2000/svg" data-type="color" role="presentation" aria-hidden="true" aria-labelledby="svgcid--69rt9s-rjszzp"><defs><style>#comp-kl0y0go9 svg [data-color="1"] {fill: #A05841;}</style></defs><title id="svgcid--69rt9s-rjszzp"></title>
    <g>
        <path d="M104.5 180h-8.9c0-15.7-19.4-44.4-32.2-63.5-5.2-7.7-9.2-13.7-11.3-17.7-11.8-21.7-6.8-49.2 12-65.4 20.5-17.9 51.5-17.9 72 0 5.2 4.5 9.5 10 12.6 16.2 7.7 15.5 7.4 33.9-.8 49.2-2 3.9-6.1 10-11.3 17.7-12.7 19.1-32.1 47.8-32.1 63.5z" fill="#000016" data-color="1"></path>
        <path fill="#FFFFFF" d="M117.3 74.7c0 9.555-7.745 17.3-17.3 17.3s-17.3-7.745-17.3-17.3 7.745-17.3 17.3-17.3 17.3 7.745 17.3 17.3z" data-color="2"></path>
    </g>
</svg>