<svg preserveAspectRatio="xMidYMid meet" data-bbox="46 30.5 108 138.9" viewBox="46 30.5 108 138.9" height="200" width="200" xmlns="http://www.w3.org/2000/svg" data-type="color" role="presentation" aria-hidden="true" aria-labelledby="svgcid-12hsiw434zjs"><defs><style>#comp-klesydws svg [data-color="1"] {fill: #A05841;}</style></defs><title id="svgcid-12hsiw434zjs"></title>
    <g>
        <path d="M150.8 55.6c-13-.7-20.7-2.2-27.4-5.3-6.6-3.1-12.5-7.8-21.1-16.9l-2.7-2.9-2.4 3.2c-12.8 16.7-27.9 20.8-48 21.9l-3.2.2v58.7c0 1.6.3 36.6 52.5 54.6l1 .3.5-.1.5.1 1-.3c50.7-17.5 52.4-50.7 52.5-54.6V55.8l-3.2-.2zm-98.1 59V62c18.8-1.4 34.2-6 47.2-21.3v121.8c-46.9-16.4-47.2-46.6-47.2-47.9z" fill="#ff6f5b" data-color="1"></path>
    </g>
</svg>